<svg width="512" height="512" viewBox="0 0 512 512" fill="none" xmlns="http://www.w3.org/2000/svg">
  <path d="M250.161 19.3598L41.5206 126.92C36.9606 129.6 35.6406 133.6 35.6806 139.4L36.0806 146.64L256.361 259.6L476.121 148.44C476.121 148.44 476.361 147.32 476.361 143.4C476.361 143.4 476.161 138.24 475.001 135.84C473.721 133.12 471.001 130.68 469.241 129.2C464.561 125.32 459.881 121.88 451.921 117.4C337.801 52.8799 262.761 19.6398 262.761 19.6398C257.921 17.8398 253.921 17.1998 250.161 19.3598Z" fill="#DEA66C"/>
  <path d="M38.9606 384.64C51.1206 392.68 73.3206 403.24 95.7606 415.4C147.921 443.64 213.841 477.96 246.641 491.44C251.081 493.28 253.721 494.16 256.801 494.32C259.081 494.44 262.841 492.92 262.841 492.92C262.841 492.92 256.721 272.16 256.361 259.56C256.001 247.24 250.841 243.16 246.281 240.2C239.161 235.64 223.721 228.52 223.721 228.52C223.721 228.52 169.641 201.64 115.641 173.32C89.9606 159.84 68.2806 146.04 44.9606 134.68C40.6806 132.64 35.6406 135.2 35.6406 140V379.2C35.6406 381.48 37.0406 383.4 38.9606 384.64Z" fill="#B38251"/>
  <path d="M470.321 386.04L263.281 492.8C259.961 494.52 256.001 492.12 256.001 488.36L256.361 259.64C256.361 257.44 255.681 252.6 255.001 250.68C253.121 245.08 257.201 242.84 259.041 241.92L464.401 136.16C469.841 133.36 476.361 137.32 476.361 143.44V376.2C476.361 380.32 474.041 384.12 470.321 386.04Z" fill="#966239"/>
  <path opacity="0.5" d="M377.841 190.36C377.841 190.36 264.361 248.4 262.521 253.32C260.681 258.2 351.561 214.52 362.201 209.04C374.241 202.84 468.801 152.28 468.801 146.72C468.841 142.16 377.841 190.36 377.841 190.36Z" fill="#212121"/>
  <path d="M402.961 165.96C400.961 164.48 186.201 52.2798 186.201 52.2798L119.561 86.7198L339.761 200.28L339.881 200.4L404.321 167.4C404.321 167.4 404.201 167.08 403.841 166.68C403.561 166.44 403.081 166.08 402.961 165.96Z" fill="#FFE0B2"/>
  <path d="M404.001 166.92C367.521 184.88 339.761 200.28 339.761 200.28C340.681 201.2 340.721 202.4 340.721 203C340.601 207.64 340.521 211.32 340.401 215.92C339.841 239.72 339.521 263.56 338.721 287.36C341.401 285.76 344.641 289.28 347.081 287.36C350.841 284.4 358.841 271.36 360.041 270.96C361.641 270.44 363.361 270.84 365.001 270.76C372.201 270.36 388.321 255.68 391.761 255C395.081 254.36 406.041 256.48 406.041 256.48C406.041 256.48 405.281 183.88 405.001 171.68C404.921 167.36 404.001 166.92 404.001 166.92Z" fill="#BF9F85"/>
  <path d="M66.7439 372.367C64.033 370.926 61.6945 368.792 59.7286 365.965C57.7627 363.139 56.252 359.769 55.1966 355.856C54.1619 351.931 53.6445 347.636 53.6445 342.972C53.6445 338.332 54.1619 334.611 55.1966 331.809C56.252 329.019 57.7627 327.256 59.7286 326.52C61.6945 325.784 64.033 326.137 66.7439 327.578C69.4548 329.019 71.7829 331.148 73.7281 333.964C75.6941 336.79 77.1944 340.154 78.2291 344.056C79.2845 347.969 79.8122 352.245 79.8122 356.886C79.8122 361.55 79.2845 365.289 78.2291 368.103C77.1944 370.904 75.6941 372.673 73.7281 373.409C71.7829 374.156 69.4548 373.809 66.7439 372.367ZM66.7439 365.019C68.2959 365.845 69.4859 365.2 70.3136 363.086C71.1414 360.971 71.5553 357.441 71.5553 352.496C71.5553 347.574 71.1414 343.615 70.3136 340.621C69.4859 337.626 68.2959 335.716 66.7439 334.891C65.1918 334.065 64.0019 334.71 63.1742 336.825C62.3464 338.939 61.9325 342.457 61.9325 347.379C61.9325 352.325 62.3464 356.295 63.1742 359.289C64.0019 362.284 65.1918 364.194 66.7439 365.019Z" fill="#6A5239"/>
  <path d="M86.0825 382.228C83.8682 381.05 82.7611 379.806 82.7611 378.493V372.727C82.7611 371.391 83.8682 371.312 86.0825 372.49L87.8519 373.43C88.99 374.035 89.8178 374.651 90.3351 375.278C90.8732 375.892 91.1422 376.527 91.1422 377.184V382.949C91.1422 384.262 90.0454 384.335 87.8519 383.169L86.0825 382.228Z" fill="#6A5239"/>
  <path d="M107.284 393.922C104.573 392.481 102.234 390.347 100.268 387.521C98.3024 384.694 96.7917 381.324 95.7363 377.412C94.7016 373.486 94.1842 369.192 94.1842 364.528C94.1842 359.887 94.7016 356.166 95.7363 353.365C96.7917 350.574 98.3024 348.811 100.268 348.075C102.234 347.339 104.573 347.692 107.284 349.133C109.995 350.575 112.323 352.703 114.268 355.519C116.234 358.345 117.734 361.71 118.769 365.611C119.824 369.524 120.352 373.801 120.352 378.441C120.352 383.105 119.824 386.844 118.769 389.658C117.734 392.46 116.234 394.228 114.268 394.964C112.323 395.711 109.995 395.364 107.284 393.922ZM107.284 386.575C108.836 387.4 110.026 386.755 110.853 384.641C111.681 382.526 112.095 378.996 112.095 374.051C112.095 369.129 111.681 365.171 110.853 362.176C110.026 359.181 108.836 357.271 107.284 356.446C105.732 355.621 104.542 356.265 103.714 358.38C102.886 360.494 102.472 364.013 102.472 368.935C102.472 373.88 102.886 377.85 103.714 380.845C104.542 383.84 105.732 385.75 107.284 386.575Z" fill="#6A5239"/>
  <path d="M126.622 403.783C124.408 402.606 123.301 401.361 123.301 400.048V394.283C123.301 392.947 124.408 392.868 126.622 394.045L128.392 394.986C129.53 395.591 130.358 396.207 130.875 396.833C131.413 397.448 131.682 398.083 131.682 398.739V404.505C131.682 405.817 130.585 405.89 128.392 404.724L126.622 403.783Z" fill="#6A5239"/>
  <path d="M137.052 409.223C136.473 408.915 136.048 408.444 135.779 407.808C135.531 407.184 135.407 406.321 135.407 405.22V404.165C135.407 403.063 135.531 402.333 135.779 401.972C136.048 401.623 136.473 401.603 137.052 401.911L144.409 405.822V377.733L136.897 375.004C136.276 374.674 135.821 373.869 135.531 372.59C135.262 371.299 135.127 370.032 135.127 368.79C135.127 368.321 135.252 368.012 135.5 367.863C135.748 367.69 136.1 367.678 136.555 367.826L150.307 372.255C150.762 372.497 151.248 372.92 151.766 373.523C152.304 374.137 152.573 374.62 152.573 374.972V410.163L158.47 413.299C159.05 413.607 159.474 414.091 159.743 414.749C160.012 415.385 160.147 416.241 160.147 417.319V418.374C160.147 419.452 160.012 420.177 159.743 420.55C159.474 420.899 159.05 420.92 158.47 420.612L137.052 409.223Z" fill="#6A5239"/>
</svg>
