<svg width="512" height="512" viewBox="0 0 512 512" fill="none" xmlns="http://www.w3.org/2000/svg">
  <path
    d="M249.457 19.3643L40.8783 126.893C36.3196 129.572 35 133.571 35.04 139.369L35.4399 146.607L255.655 259.534L475.351 148.407C475.351 148.407 475.591 147.287 475.591 143.368C475.591 143.368 475.391 138.21 474.231 135.81C472.952 133.091 470.232 130.652 468.473 129.172C463.794 125.293 459.116 121.854 451.158 117.376C337.071 52.8745 262.053 19.6442 262.053 19.6442C257.215 17.8448 253.216 17.205 249.457 19.3643Z"
    fill="#DEA66C" />
  <path
    d="M38.319 384.537C50.4755 392.575 72.669 403.132 95.1024 415.288C147.247 443.52 213.148 477.83 245.938 491.306C250.377 493.145 253.016 494.025 256.095 494.185C258.375 494.305 262.133 492.786 262.133 492.786C262.133 492.786 255.655 272.095 255.655 259.494C255.655 241.439 256.515 244.239 246.438 238.94C179.6 203.796 112.183 167.71 44.3173 134.651C37.7916 131.472 35 128.473 35 139.969V379.099C35 381.378 36.3996 383.298 38.319 384.537Z"
    fill="#B38251" />
  <path
    d="M469.553 385.937L262.573 492.666C256.435 495.365 255.295 495.365 255.295 488.227L255.655 259.574C255.655 257.375 255.655 254.935 255.655 248.937C255.655 242.896 256.495 242.779 258.335 241.859L463.634 136.13C474.371 129.472 475.591 136.97 475.591 143.408V376.1C475.591 380.219 473.272 384.017 469.553 385.937Z"
    fill="#966239" />
  <path opacity="0.25"
    d="M377.1 190.314C377.1 190.314 263.653 248.337 261.814 253.256C259.974 258.134 350.828 214.467 361.464 208.989C373.501 202.791 468.033 152.245 468.033 146.687C468.073 142.128 377.1 190.314 377.1 190.314Z"
    fill="#212121" />
  <g filter="url(#filter0_d_1_11)">
    <path d="M155.964 67.9902L371.401 182.957" stroke="black" stroke-opacity="0.8" stroke-width="1.2"
      stroke-linecap="round" shape-rendering="crispEdges" />
  </g>
  <path
    d="M402.212 165.921C400.213 164.442 185.516 52.2747 185.516 52.2747L156.465 66.9905L154.965 67.9902L118.895 86.7046L339.031 200.231L339.151 200.351L403.572 167.361C403.572 167.361 403.452 167.041 403.092 166.641C402.812 166.401 402.332 166.041 402.212 165.921Z"
    fill="#FFE0B2" fill-opacity="0.95" />
  <path
    d="M403.252 166.881C391.732 172.553 381.082 177.969 371.901 182.725C371.397 182.987 371.397 183.699 370.902 183.956C351.869 193.84 339.031 200.231 339.031 200.231C339.951 201.151 339.991 202.351 339.991 202.95C339.871 207.589 339.791 211.268 339.671 215.867C339.111 239.66 338.791 263.493 337.991 287.286C340.671 285.686 343.91 289.205 346.349 287.286C350.108 284.327 358.105 271.29 359.305 270.891C360.905 270.371 362.624 270.771 364.264 270.691C371.461 270.291 387.577 255.615 391.016 254.935C394.335 254.295 405.292 256.415 405.292 256.415C405.292 256.415 404.532 183.836 404.252 171.64C404.172 167.321 403.252 166.881 403.252 166.881Z"
    fill="#D0B082" fill-opacity="0.9" />
  <path
    d="M66.7419 372.139C64.0314 370.744 61.6933 368.651 59.7277 365.859C57.762 363.067 56.2516 359.723 55.1964 355.829C54.1618 351.922 53.6445 347.636 53.6445 342.972C53.6445 338.332 54.1618 334.602 55.1964 331.782C56.2516 328.973 57.762 327.184 59.7277 326.414C61.6933 325.643 64.0314 325.955 66.7419 327.349C69.4524 328.744 71.7801 330.831 73.7251 333.613C75.6907 336.405 77.1908 339.743 78.2254 343.627C79.2806 347.521 79.8082 351.789 79.8082 356.429C79.8082 361.093 79.2806 364.842 78.2254 367.674C77.1908 370.493 75.6907 372.288 73.7251 373.058C71.7801 373.839 69.4524 373.533 66.7419 372.139ZM66.7419 364.791C68.2937 365.589 69.4834 364.924 70.3111 362.795C71.1387 360.666 71.5525 357.128 71.5525 352.183C71.5525 347.261 71.1387 343.31 70.3111 340.33C69.4834 337.349 68.2937 335.46 66.7419 334.662C65.1901 333.864 64.0003 334.529 63.1727 336.658C62.3451 338.787 61.9312 342.313 61.9312 347.235C61.9312 352.18 62.3451 356.143 63.1727 359.123C64.0003 362.103 65.1901 363.993 66.7419 364.791Z"
    fill="#6A5239" />
  <path
    d="M86.0776 381.662C83.8636 380.523 82.7567 379.297 82.7567 377.985V372.219C82.7567 370.883 83.8636 370.785 86.0776 371.923L87.8466 372.833C88.9846 373.419 89.8123 374.02 90.3296 374.638C90.8675 375.242 91.1365 375.873 91.1365 376.529V382.295C91.1365 383.607 90.0399 383.7 87.8466 382.572L86.0776 381.662Z"
    fill="#6A5239" />
  <path
    d="M107.275 392.986C104.565 391.592 102.227 389.499 100.261 386.707C98.2956 383.915 96.7851 380.571 95.7299 376.677C94.6953 372.77 94.1781 368.484 94.1781 363.82C94.1781 359.18 94.6953 355.45 95.7299 352.63C96.7851 349.821 98.2956 348.032 100.261 347.261C102.227 346.491 104.565 346.803 107.275 348.197C109.986 349.591 112.314 351.679 114.259 354.461C116.224 357.253 117.724 360.591 118.759 364.475C119.814 368.369 120.342 372.637 120.342 377.277C120.342 381.941 119.814 385.689 118.759 388.522C117.724 391.341 116.224 393.136 114.259 393.906C112.314 394.687 109.986 394.38 107.275 392.986ZM107.275 385.639C108.827 386.437 110.017 385.771 110.845 383.642C111.672 381.513 112.086 377.976 112.086 373.031C112.086 368.109 111.672 364.158 110.845 361.178C110.017 358.197 108.827 356.308 107.275 355.51C105.724 354.712 104.534 355.377 103.706 357.506C102.879 359.635 102.465 363.161 102.465 368.082C102.465 373.028 102.879 376.991 103.706 379.971C104.534 382.951 105.724 384.841 107.275 385.639Z"
    fill="#6A5239" />
  <path
    d="M126.611 402.509C124.397 401.371 123.29 400.145 123.29 398.833V393.067C123.29 391.731 124.397 391.633 126.611 392.771L128.38 393.681C129.518 394.266 130.346 394.868 130.863 395.486C131.401 396.09 131.67 396.721 131.67 397.377V403.143C131.67 404.455 130.573 404.547 128.38 403.419L126.611 402.509Z"
    fill="#6A5239" />
  <path
    d="M137.039 407.768C136.46 407.47 136.036 407.005 135.767 406.375C135.519 405.755 135.394 404.894 135.394 403.793V402.738C135.394 401.636 135.519 400.903 135.767 400.539C136.036 400.185 136.46 400.157 137.039 400.455L144.395 404.238V376.149L136.884 373.551C136.263 373.232 135.808 372.435 135.519 371.161C135.25 369.874 135.115 368.61 135.115 367.368C135.115 366.899 135.239 366.588 135.488 366.434C135.736 366.257 136.088 366.239 136.543 366.379L150.292 370.568C150.747 370.802 151.233 371.217 151.751 371.811C152.289 372.416 152.558 372.894 152.558 373.245V408.437L158.454 411.47C159.034 411.768 159.458 412.244 159.727 412.898C159.996 413.528 160.13 414.382 160.13 415.461V416.515C160.13 417.593 159.996 418.321 159.727 418.698C159.458 419.052 159.034 419.08 158.454 418.782L137.039 407.768Z"
    fill="#6A5239" />
  <defs>
    <filter id="filter0_d_1_11" x="153.364" y="65.3901" width="220.637" height="120.167" filterUnits="userSpaceOnUse"
      color-interpolation-filters="sRGB">
      <feFlood flood-opacity="0" result="BackgroundImageFix" />
      <feColorMatrix in="SourceAlpha" type="matrix" values="0 0 0 0 0 0 0 0 0 0 0 0 0 0 0 0 0 0 127 0"
        result="hardAlpha" />
      <feOffset />
      <feGaussianBlur stdDeviation="1" />
      <feComposite in2="hardAlpha" operator="out" />
      <feColorMatrix type="matrix" values="0 0 0 0 0 0 0 0 0 0 0 0 0 0 0 0 0 0 0.9 0" />
      <feBlend mode="normal" in2="BackgroundImageFix" result="effect1_dropShadow_1_11" />
      <feBlend mode="normal" in="SourceGraphic" in2="effect1_dropShadow_1_11" result="shape" />
    </filter>
  </defs>
</svg>